<?xml version="1.0" encoding="UTF-8" standalone="no"?>
<!-- Created with Inkscape (http://www.inkscape.org/) -->

<svg
   width="300"
   height="300"
   viewBox="0 0 79.375001 79.375"
   version="1.1"
   id="svg313"
   xmlns:inkscape="http://www.inkscape.org/namespaces/inkscape"
   xmlns:sodipodi="http://sodipodi.sourceforge.net/DTD/sodipodi-0.dtd"
   xmlns="http://www.w3.org/2000/svg"
   xmlns:svg="http://www.w3.org/2000/svg">
  <sodipodi:namedview
     id="namedview315"
     pagecolor="#ffffff"
     bordercolor="#000000"
     borderopacity="0.25"
     inkscape:showpageshadow="2"
     inkscape:pageopacity="0.0"
     inkscape:pagecheckerboard="0"
     inkscape:deskcolor="#d1d1d1"
     inkscape:document-units="mm"
     showgrid="true">
    <inkscape:grid
       type="xygrid"
       id="grid431"
       originx="0"
       originy="0" />
  </sodipodi:namedview>
  <defs
     id="defs310">
    <linearGradient
       id="paint1_linear_136_392"
       x1="278.80899"
       y1="275.659"
       x2="335.32501"
       y2="331.94101"
       gradientUnits="userSpaceOnUse"
       gradientTransform="matrix(1.1053725,0,0,1.0470091,-298.90919,-279.156)">
      <stop
         offset="0.2"
         stop-color="#00FF85"
         id="stop129" />
      <stop
         offset="1"
         stop-color="#00E0FF"
         id="stop131" />
    </linearGradient>
  </defs>
  <g
     inkscape:label="Capa 1"
     inkscape:groupmode="layer"
     id="layer1">
    <path
       d="m 70.591414,63.010759 c 0,0 0.616796,-0.0075 1.026892,0.282702 0,0 1.223644,-2.365195 -3.171316,-6.574171 0,0 0.609063,-0.260701 1.407141,-0.0075 0,0 -0.124915,-3.603806 -4.686782,-6.901883 0,0 0.672068,-0.233475 1.00589,-0.113097 0,0 -1.770805,-3.218505 -6.379103,-4.938743 0,0 0.684225,-0.3717 1.550836,-0.357019 0,0 -3.437708,-3.886496 -9.40893,-3.54831 0,0 0.315047,-0.346572 0.952832,-0.56434 0,0 -0.963886,-0.620877 -3.259743,-0.892052 -1.222545,-0.259672 -2.772274,-0.327696 -2.772274,-0.327696 0.499626,-0.01345 1.546416,-0.293149 2.156582,-0.468014 2.521352,-0.257574 4.960911,-0.878443 6.137025,-2.224896 0,0 -0.50626,0.153896 -1.231386,-0.505706 0,0 5.226202,-0.477436 9.038632,-5.241327 0,0 -1.31871,0.498378 -2.104627,-0.02612 0,0 4.733202,-1.803997 5.858472,-5.101029 0,0 -0.89756,0.548631 -1.943243,0.430322 0,0 2.893865,-1.898231 3.973814,-5.166993 0,0 -0.889827,0.450215 -1.589526,0.180092 0,0 3.330489,-2.255255 2.881707,-5.632908 0,0 -0.525052,0.766411 -1.619373,0.498374 0,0 3.485239,-3.618464 2.015097,-7.0222881 0,0 -2.585469,-0.318278 -4.927753,1.7935251 0,0 -0.0067,-0.5863231 0.297333,-0.9758101 0,0 -2.485983,-1.164276 -6.911892,3.0153861 0,0 -0.273018,-0.577949 -0.0079,-1.33808 0,0 -3.789214,0.118321 -7.255665,4.458167 0,0 -0.245403,-0.639722 -0.119401,-0.956967 0,0 -3.383543,1.684636 -5.193038,6.067417 0,0 -0.390205,-0.650191 -0.374706,-1.474187 0,0 -4.085456,3.268761 -3.730633,8.947741 0,0 -0.364762,-0.298412 -0.593584,-0.905665 0,0 -0.477521,0.670089 -0.794761,2.232225 -0.311705,1.37263 -0.457626,3.294939 -0.457626,3.294939 0.0079,-1.022928 -0.558211,-2.810174 -0.787024,-3.492823 -0.341576,-1.942201 -0.990415,-3.699083 -2.165426,-4.627781 0,0 0.161388,0.48267 -0.532789,1.171603 0,0 -0.50184,-4.970154 -5.510282,-8.595947 0,0 0.525052,1.253269 -0.02632,2.001881 0,0 -1.896819,-4.502138 -5.364373,-5.572182 0,0 0.578109,0.852266 0.453202,1.846925 0,0 -1.996301,-2.751541 -5.432906,-3.778656 0,0 0.473101,0.847031 0.189003,1.51188 0,0 -2.371023,-3.168249 -5.922584,-2.741069 0,0 0.805816,0.499422 0.523944,1.54015 0,0 -3.803586,-3.3148301 -7.3827814,-1.916029 0,0 -0.334934,2.458379 1.8857634,4.686413 0,0 -0.6156917,0.0075 -1.0268907,-0.282702 0,0 -1.2236437,2.364147 3.1713147,6.574172 0,0 -0.607955,0.259671 -1.406033,0.0075 0,0 0.123787,3.603806 4.685675,6.90084 0,0 -0.672068,0.233475 -1.00589,0.114126 0,0 1.771912,3.21746 6.380211,4.938743 0,0 -0.684226,0.3717 -1.55084,0.357019 0,0 3.436605,3.885448 9.407827,3.54831 0,0 -0.313919,0.346572 -0.952832,0.563292 0,0 0.456519,0.294218 1.486728,0.565385 1.362923,0.491049 5.886107,0.646005 5.886107,0.646005 -0.6997,0.113096 -1.734328,0.384244 -2.80212,0.69731 -2.735794,0.216736 -5.488174,0.822947 -6.761563,2.280384 0,0 0.507367,-0.153896 1.231386,0.506755 0,0 -5.226201,0.477436 -9.038632,5.240278 0,0 1.31871,-0.498378 2.104631,0.02612 0,0 -4.733207,1.803996 -5.858477,5.102073 0,0 0.897564,-0.549679 1.943248,-0.430318 0,0 -2.893869,1.898225 -3.972712,5.166987 0,0 0.889827,-0.451259 1.58842,-0.181121 0,0 -3.330485,2.256304 -2.881703,5.633956 0,0 0.525051,-0.767455 1.619368,-0.499422 0,0 -3.4841357,3.618464 -2.013989,7.022289 0,0 2.584361,0.318277 4.926645,-1.793526 0,0 0.0079,0.586326 -0.297333,0.976858 0,0 2.485984,1.163227 6.911897,-3.016431 0,0 0.274147,0.578994 0.0079,1.338076 0,0 3.789219,-0.11832 7.255665,-4.457117 0,0 0.245404,0.638677 0.119402,0.955921 0,0 3.383542,-1.684639 5.193038,-6.06742 0,0 0.390205,0.650196 0.374705,1.475236 0,0 4.086563,-3.26981 3.730633,-8.948788 0,0 0.364762,0.298413 0.593584,0.906713 0,0 1.229175,-1.725473 1.050103,-6.085219 0.247617,0.905664 0.50626,1.776775 0.74502,2.545279 0.26859,2.40498 0.920776,4.733531 2.340074,5.854875 0,0 -0.161388,-0.482672 0.532793,-1.171601 0,0 0.501836,4.971197 5.510279,8.596989 0,0 -0.525052,-1.254313 0.02632,-2.00188 0,0 1.896819,4.501093 5.364373,5.572181 0,0 -0.57811,-0.853311 -0.453202,-1.847969 0,0 1.996305,2.75154 5.432905,3.778655 0,0 -0.473096,-0.845982 -0.189003,-1.51188 0,0 2.371023,3.168249 5.922584,2.741069 0,0 -0.805815,-0.498377 -0.523948,-1.54015 0,0 3.803589,3.314832 7.382786,1.916025 0,0 0.334933,-2.458375 -1.885769,-4.685364 z M 40.412535,40.336728 C 32.820834,44.915299 17.658441,60.891611 17.658441,60.891611 19.838234,55.737184 31.640296,43.31128 39.619979,39.046811 34.728707,31.79732 18.068532,17.493082 18.068532,17.493082 23.477124,19.561973 36.501726,30.74717 41.009436,38.337986 49.126184,33.948925 63.685046,17.50041 63.685046,17.50041 63.007455,21.56176 49.012331,35.67335 41.727927,39.612196 46.258849,47.312951 63.689466,61.270628 63.689466,61.270628 59.408359,60.623578 44.512359,47.252223 40.412535,40.336728 Z"
       fill="url(#paint1_linear_136_392)"
       id="path31"
       style="fill:url(#paint1_linear_136_392);stroke-width:1.07579" />
  </g>
</svg>
